<svg version="1.1" id="Layer_1" xmlns="http://www.w3.org/2000/svg" xmlns:xlink="http://www.w3.org/1999/xlink" x="0px" y="0px"
	 width="100%" viewBox="0 0 1024 624" enable-background="new 0 0 1024 624" xml:space="preserve">
<path fill="#000000" opacity="1.000000" stroke="none" 
	d="
M469.550720,518.199341 
	C464.125458,529.311218 454.876953,534.054871 443.550018,534.203857 
	C416.915741,534.554260 390.273834,534.332397 363.635040,534.307922 
	C361.728882,534.306152 359.563293,534.720703 358.302002,532.189209 
	C359.817932,529.902222 362.330536,530.423340 364.489044,530.118652 
	C370.408844,529.282776 371.894348,526.648193 369.757141,521.206970 
	C367.274536,514.886475 364.928253,508.508026 362.711548,502.089539 
	C361.827148,499.528809 360.444366,498.208405 357.667572,498.252350 
	C352.337585,498.336670 347.005463,498.278046 341.674377,498.303802 
	C338.652740,498.318390 336.891418,499.610565 335.968872,502.737122 
	C334.001740,509.404053 331.210327,515.802917 329.552979,522.595520 
	C328.386108,527.377991 329.420258,529.319214 334.316284,530.022522 
	C336.491882,530.335022 339.010132,529.702759 340.510742,531.988647 
	C339.817993,534.410828 337.954926,534.215637 336.386536,534.221313 
	C316.400635,534.293884 296.414490,534.323547 276.428436,534.319641 
	C274.835632,534.319336 273.006836,534.511658 272.139587,532.218994 
	C273.463470,529.752014 276.008270,530.331116 278.176666,530.082031 
	C283.464264,529.474487 285.427032,526.903748 283.821289,521.987610 
	C281.760651,515.678772 279.433563,509.454926 277.126404,503.229614 
	C275.844055,499.769440 273.543854,497.918793 269.523071,498.181610 
	C264.876617,498.485260 260.197632,498.311554 255.532822,498.305298 
	C252.465240,498.301147 250.461975,499.807465 249.505020,502.623322 
	C247.321274,509.048950 245.099091,515.466187 243.133972,521.959961 
	C241.564117,527.147583 243.225906,529.402893 248.593201,530.048706 
	C250.489075,530.276855 252.679352,529.734314 253.867355,531.943054 
	C251.127655,535.106873 228.201599,535.511536 223.874451,532.512024 
	C223.848831,531.234253 224.746246,530.747559 225.759430,530.569702 
	C231.873657,529.496582 233.813675,524.570801 235.558685,519.692444 
	C238.291443,512.052856 240.689240,504.294189 243.301498,496.610626 
	C248.045670,482.656433 253.044052,468.783997 257.494690,454.737549 
	C258.811371,450.582062 261.596191,450.379059 264.737915,450.222626 
	C268.139435,450.053223 271.539886,450.249390 272.964935,454.268799 
	C280.891876,476.627167 288.843628,498.976746 296.732605,521.348450 
	C298.962372,527.671631 302.905060,530.586426 309.882324,530.755493 
	C315.193115,530.884216 318.374878,528.313049 320.746948,521.629761 
	C328.345032,500.222137 336.271240,478.916718 343.164642,457.283112 
	C344.930359,451.741821 346.932037,450.097778 352.265686,450.368896 
	C356.441132,450.581116 358.456207,452.277435 359.782532,456.150940 
	C364.131622,468.852386 368.788391,481.448669 373.353333,494.075836 
	C376.787476,503.574982 380.129730,513.110596 383.766235,522.532166 
	C386.121643,528.634705 390.630402,531.051636 397.164276,530.401062 
	C398.984741,530.219788 400.821167,530.201721 402.643341,530.033813 
	C409.626831,529.390320 412.759918,526.053589 412.773468,519.125366 
	C412.808350,501.298676 412.821838,483.471924 412.797150,465.645233 
	C412.785248,457.060822 411.187836,455.291718 402.703308,454.128845 
	C401.217438,453.925201 399.386810,453.905243 399.390900,451.907928 
	C399.394989,449.889954 401.243103,449.650574 402.713715,449.790283 
	C417.485504,451.193970 432.355988,447.922302 447.073700,450.660675 
	C451.769592,451.534393 456.183411,453.136475 460.236176,456.060547 
	C467.690125,461.438629 468.947357,474.253235 461.900696,481.072296 
	C457.105988,485.712097 457.288910,485.901123 462.261749,490.498901 
	C471.297150,498.852966 473.650757,507.468231 469.550720,518.199341 
M450.499023,493.937164 
	C444.733124,488.361298 437.268463,490.721344 430.536163,489.634216 
	C427.012695,489.065308 425.474823,490.704926 425.458679,493.972107 
	C425.415924,502.624573 425.272003,511.284973 425.578156,519.927673 
	C425.766876,525.254395 428.555664,527.765564 434.052307,528.731689 
	C442.286743,530.178955 451.334503,526.231384 454.713837,519.716919 
	C459.946655,509.629517 458.899567,502.394287 450.499023,493.937164 
M427.568695,454.789886 
	C427.061310,455.430786 426.224121,456.012543 426.097076,456.721588 
	C424.677734,464.640533 425.217499,472.614197 425.759644,480.562256 
	C425.884308,482.390106 427.451416,483.274170 429.408966,483.218475 
	C433.896576,483.090790 438.398834,483.209625 442.871643,482.894684 
	C448.564636,482.493835 452.371796,478.105560 452.859619,472.394623 
	C453.971222,459.380920 448.381348,456.193787 436.307495,454.382599 
	C433.714996,453.993744 430.999329,454.425751 427.568695,454.789886 
M256.477234,489.453003 
	C260.417694,490.326721 264.414703,489.823761 268.382324,489.864441 
	C270.856628,489.889862 272.100891,488.662537 271.091827,485.980255 
	C269.168945,480.868744 267.363678,475.712189 265.380707,470.624573 
	C264.814728,469.172394 264.174774,467.410675 261.545380,467.941925 
	C261.081818,471.132172 259.161926,474.099335 258.739594,477.252258 
	C258.196411,481.307098 253.942368,484.385590 256.477234,489.453003 
M356.979828,486.168365 
	C354.599274,479.462036 353.106964,472.386261 348.700745,465.655670 
	C346.586060,471.944550 344.679016,477.510925 342.844696,483.101196 
	C341.075531,488.492828 342.131226,489.882111 347.894470,489.875610 
	C350.045227,489.873169 352.198212,489.878906 354.345886,489.783600 
	C356.143951,489.703766 357.735199,489.283722 356.979828,486.168365 
z"/>
<path fill="#000000" opacity="1.000000" stroke="none" 
	d="
M432.269348,322.826599 
	C388.630920,299.519165 361.540314,264.138062 353.146667,215.617462 
	C341.708069,149.495193 376.797913,83.614471 439.654266,56.375427 
	C457.314178,48.722439 475.833984,45.016571 495.360962,44.566917 
	C532.213501,43.718292 564.700439,54.917828 592.825439,78.029999 
	C618.415222,99.058868 635.054504,126.118713 642.376953,158.704163 
	C649.077576,188.522018 647.228271,217.758621 635.487549,245.905914 
	C615.220703,294.493530 578.967712,324.555084 527.451172,335.355652 
	C494.600250,342.242950 462.843262,337.670013 432.269348,322.826599 
M407.502625,299.467682 
	C408.003510,299.979858 408.504395,300.492065 409.381927,301.552826 
	C409.728546,301.911865 410.036346,302.321289 410.427307,302.622833 
	C445.333801,329.546234 484.745972,338.729279 527.662231,330.194824 
	C560.957886,323.573517 588.554016,306.250458 609.690613,279.485352 
	C636.371887,245.698990 646.304321,207.263107 638.430786,164.969193 
	C632.077515,130.841156 615.017944,102.447838 587.745850,80.712585 
	C553.249390,53.219753 513.705872,44.103996 470.778046,51.994011 
	C438.665100,57.896278 411.817413,74.230324 390.486237,99.193687 
	C372.507111,120.234276 361.091095,144.423752 357.409058,171.836914 
	C352.549042,208.020218 360.927734,241.311554 381.438171,271.469604 
	C388.567780,281.952820 396.479767,291.824188 407.502625,299.467682 
z"/>
<path fill="#000000" opacity="1.000000" stroke="none" 
	d="
M793.125427,528.314819 
	C795.044800,526.156372 794.821655,524.024353 794.086548,521.908325 
	C791.910889,515.646179 789.662598,509.409271 787.460754,503.156189 
	C786.198669,499.572083 783.929626,497.906586 779.910828,498.209930 
	C775.435913,498.547699 770.915466,498.366211 766.417236,498.281799 
	C763.087097,498.219330 761.108459,499.856567 760.059692,502.848358 
	C757.970459,508.808472 755.816650,514.747986 753.850952,520.748840 
	C751.869873,526.796753 753.626648,529.299744 760.122742,530.077332 
	C761.735413,530.270325 763.520508,530.087830 764.412781,531.940002 
	C761.602539,535.163391 738.531677,535.517700 734.535095,532.421387 
	C734.619934,532.109619 734.644287,531.572998 734.813232,531.522705 
	C745.823669,528.248108 746.311646,517.773438 749.498230,509.442383 
	C754.413940,496.590851 758.574585,483.449615 763.010742,470.416016 
	C764.717773,465.400696 766.565063,460.409668 767.853333,455.283142 
	C768.773438,451.621613 770.752869,450.271484 774.259277,450.620209 
	C777.799316,450.972290 781.564697,449.430603 783.445618,454.946228 
	C789.762451,473.469910 796.861694,491.725281 803.371277,510.185699 
	C804.804749,514.250854 806.309326,518.270935 807.892639,522.274536 
	C810.118591,527.902893 813.817078,530.593628 819.592224,530.586731 
	C824.685608,530.580627 828.342468,527.903320 830.273071,522.424744 
	C835.454834,507.720001 840.538025,492.980591 845.672485,478.259125 
	C848.398438,470.443390 851.218018,462.659424 853.854065,454.813690 
	C854.852112,451.843262 856.164368,449.847870 859.771851,449.977478 
	C863.555237,450.113373 867.225098,450.007660 868.813843,454.431152 
	C871.172119,460.997162 873.546265,467.557465 875.920898,474.117615 
	C879.651001,484.422607 883.475830,494.694489 887.085938,505.041321 
	C889.105896,510.830719 891.130127,516.601929 893.432129,522.293884 
	C895.145447,526.530273 897.770630,529.237976 902.154114,530.361023 
	C903.101746,530.603821 904.084351,531.024048 904.160278,532.279236 
	C900.921143,535.126648 871.840332,535.334106 867.872620,532.491394 
	C868.528259,529.999512 870.591858,530.576599 872.317200,530.490601 
	C879.720276,530.121521 881.472717,527.690491 879.124084,520.920593 
	C877.008240,514.821777 874.710327,508.782440 872.751282,502.634491 
	C871.845581,499.791931 870.120728,498.451172 867.336060,498.404663 
	C861.838013,498.312744 856.337830,498.349457 850.838562,498.331177 
	C848.346191,498.322876 847.000488,499.465332 846.194580,501.937714 
	C843.883606,509.027527 841.276428,516.020386 838.821228,523.063721 
	C837.513794,526.814270 839.104309,529.068726 843.560486,529.946472 
	C845.715881,530.371033 848.321167,529.614807 849.776550,532.211975 
	C848.791809,534.769409 846.555847,534.272827 844.704407,534.279053 
	C825.706787,534.342590 806.708862,534.343201 787.711060,534.347534 
	C785.773926,534.347961 783.700073,534.592468 782.362854,532.123779 
	C785.184692,528.630920 790.037598,531.407959 793.125427,528.314819 
M776.481384,471.362366 
	C775.574158,469.650421 774.970215,467.654358 772.422791,467.128754 
	C771.074158,471.065979 769.502625,474.889099 768.456909,478.850983 
	C765.372131,490.538483 765.448669,490.464294 777.817871,489.837067 
	C781.856628,489.632263 782.134827,488.119476 780.796875,484.772339 
	C779.149902,480.652344 778.015686,476.327393 776.481384,471.362366 
M861.259460,470.412628 
	C860.633972,469.361511 861.163391,467.627838 858.802490,467.093811 
	C855.479797,472.724823 854.245667,479.264069 852.149963,485.457825 
	C851.671265,486.872559 850.961426,488.912384 852.816040,489.348907 
	C857.020691,490.338654 861.403137,490.213287 865.565369,489.024353 
	C867.198486,488.557892 867.079285,486.559723 866.563843,485.081421 
	C864.931213,480.398682 863.207581,475.747681 861.259460,470.412628 
z"/>
<path fill="#000000" opacity="1.000000" stroke="none" 
	d="
M178.154007,456.042725 
	C172.338257,460.889587 171.587021,468.165314 168.075516,473.856598 
	C162.821762,482.371613 168.593140,489.106750 171.057663,496.206757 
	C172.944519,501.642548 175.858170,506.763123 177.838608,512.236755 
	C178.278458,513.452454 178.889267,514.727051 180.543106,515.105103 
	C182.562729,513.983032 183.001892,511.704102 183.808456,509.820343 
	C190.934738,493.176727 197.936142,476.479645 204.995255,459.807220 
	C206.427460,456.424591 205.140137,454.731903 201.716614,454.294281 
	C199.974335,454.071533 197.985825,454.557098 196.845673,452.622162 
	C199.430695,449.019531 218.610107,448.648010 222.753265,452.311768 
	C210.520737,458.925537 209.762466,472.408569 204.556412,483.116119 
	C196.735001,499.202911 190.207535,515.919495 183.161667,532.381897 
	C182.147583,534.751282 180.571854,536.216187 177.911530,536.271301 
	C175.211441,536.327148 173.627213,534.847473 172.633347,532.474854 
	C168.728485,523.152588 164.749542,513.861023 160.913773,504.510651 
	C160.213654,502.804047 160.020126,500.570557 157.733200,500.666656 
	C155.655975,500.753937 155.829269,503.049988 155.200104,504.511932 
	C151.331696,513.500305 147.364746,522.447205 143.596085,531.476990 
	C142.399567,534.343872 140.699310,536.588806 137.554657,536.626831 
	C134.502701,536.663696 132.716721,534.111145 131.879944,531.638062 
	C129.108871,523.448181 125.273476,515.716614 122.020416,507.738647 
	C116.388275,493.926178 110.241364,480.314240 104.963638,466.370941 
	C102.638206,460.227325 99.650009,455.888245 92.871880,454.791107 
	C91.537880,454.575195 89.732391,453.746307 90.315331,451.762543 
	C90.820023,450.045044 92.553329,449.844513 94.052376,449.937958 
	C102.370651,450.456726 110.684006,450.225281 119.000900,449.959137 
	C120.889809,449.898682 122.610802,450.288116 123.284111,452.392456 
	C116.071907,458.425262 115.818474,458.525330 119.597504,468.095581 
	C125.803398,483.811768 132.375320,499.383423 138.694366,514.776001 
	C141.741455,515.357300 142.245590,513.558533 142.967056,511.819763 
	C145.508713,505.694061 148.024551,499.553101 150.772293,493.519073 
	C152.685257,489.318207 152.829880,485.133423 151.154358,480.973816 
	C148.805328,475.142120 145.923737,469.515076 143.770233,463.617798 
	C142.246872,459.446167 139.790451,457.009399 135.523285,455.823700 
	C133.721466,455.323059 130.680344,454.703033 131.415466,451.788544 
	C132.027832,449.360687 134.613770,449.962646 136.568802,449.957886 
	C150.889786,449.923126 165.210770,449.894531 179.531754,449.864227 
	C180.363571,449.862488 181.201706,449.797791 182.025711,449.877747 
	C183.262329,449.997711 184.335571,450.518433 184.595856,451.845459 
	C184.896011,453.375793 183.775635,453.943634 182.571945,454.136017 
	C181.043610,454.380341 179.707275,454.968567 178.154007,456.042725 
M158.932037,466.193176 
	C159.411194,467.631287 159.894531,468.930420 161.497314,467.019135 
	C163.385147,464.767822 163.783890,461.893341 164.872086,459.306458 
	C165.612961,457.545258 165.573990,456.056519 163.859467,454.955170 
	C162.230927,453.909027 160.751450,454.380737 159.249527,455.409698 
	C154.620163,458.581207 157.441010,462.099579 158.932037,466.193176 
z"/>
<path fill="#000000" opacity="1.000000" stroke="none" 
	d="
M720.464722,526.049438 
	C722.410095,530.887329 727.805847,529.127563 730.635071,531.953186 
	C727.511536,535.133545 700.667419,535.455627 696.361755,532.511536 
	C697.070801,530.028503 699.248535,530.801270 700.909058,530.490784 
	C704.533081,529.812866 707.000427,527.561951 706.500305,523.995850 
	C704.272034,508.109436 705.576965,492.050903 703.845947,476.156311 
	C703.814209,475.865173 703.539124,475.600555 703.188599,474.999451 
	C699.137695,477.535706 698.718262,482.198303 696.966980,485.847168 
	C690.064880,500.227753 683.618835,514.826721 676.874023,529.284119 
	C676.036987,531.078247 675.807861,533.939941 672.950378,533.854919 
	C670.060120,533.768982 669.498291,531.055420 668.557007,528.991882 
	C660.576904,511.496826 652.636597,493.983704 644.672791,476.481262 
	C644.419678,475.924988 644.041870,475.425507 643.805237,475.036255 
	C642.657410,475.065491 642.297363,475.624939 642.306396,476.322632 
	C642.492065,490.674316 639.239136,504.782013 639.303711,519.128235 
	C639.342285,527.699524 639.271606,527.688049 647.078613,530.729065 
	C647.625244,530.942078 648.030945,531.516785 648.520935,531.939392 
	C645.311646,534.997925 625.978760,535.396362 621.597900,532.660889 
	C621.536682,531.696289 621.998779,530.902832 622.891113,530.820679 
	C629.624573,530.200378 631.494812,525.127380 631.579407,519.882935 
	C631.874939,501.552094 633.421387,483.313171 634.827820,465.060425 
	C635.177734,460.519226 634.300232,456.814636 629.858032,454.625336 
	C628.694153,454.051697 627.324219,453.324890 627.718140,451.650604 
	C628.161316,449.766815 629.770020,449.737823 631.309082,449.738007 
	C631.641846,449.738037 631.974548,449.775543 632.307434,449.780579 
	C647.476013,450.010132 647.218628,450.116638 654.335266,467.280365 
	C660.047180,481.056244 666.468750,494.538361 672.612488,508.134064 
	C673.358459,509.785004 674.167114,511.524689 676.992615,511.523773 
	C680.935486,502.847443 684.994324,494.000183 688.981018,485.120514 
	C693.395935,475.286957 697.691895,465.399689 702.149963,455.585968 
	C703.788818,451.978394 706.510376,449.660828 710.783997,450.144592 
	C714.847046,450.604523 719.333801,448.542206 722.964539,451.647095 
	C722.845276,452.444458 722.903992,452.968872 722.733643,453.058685 
	C715.262207,456.997223 716.697693,463.548096 716.864868,470.354614 
	C717.318787,488.845917 718.753479,507.250061 720.464722,526.049438 
z"/>
<path fill="#000000" opacity="1.000000" stroke="none" 
	d="
M996.122192,528.622131 
	C996.070251,531.279724 996.088928,533.542236 993.381042,534.338684 
	C990.630737,535.147644 989.138794,533.396179 987.511047,531.583008 
	C968.929077,510.884460 950.300964,490.227234 931.665405,469.576813 
	C931.025391,468.867645 930.177856,468.345703 929.379456,467.697876 
	C927.288513,469.620300 928.022827,471.927277 928.013672,473.946411 
	C927.943298,489.444550 927.986511,504.943207 928.002930,520.441711 
	C928.010132,527.247131 929.293030,528.779297 936.031433,530.130859 
	C937.473633,530.420105 939.066040,530.397034 939.971985,531.892700 
	C937.339478,535.171082 913.899048,535.593750 909.573914,532.389893 
	C909.808777,531.988831 909.956116,531.337219 910.302917,531.203796 
	C918.045654,528.223938 918.642456,527.501404 918.671021,518.921204 
	C918.732056,500.589539 918.538940,482.255432 918.789673,463.926971 
	C918.859680,458.808105 917.359131,455.593231 912.245483,454.409424 
	C910.951477,454.109802 909.398743,453.745026 909.547241,452.029449 
	C909.709534,450.154724 911.295044,449.716797 912.880371,449.767853 
	C918.370667,449.944702 923.859802,450.173401 929.346375,450.442688 
	C931.340820,450.540619 932.633362,451.908264 933.882080,453.279388 
	C949.805725,470.764618 965.725830,488.253021 981.663818,505.725098 
	C982.868225,507.045441 983.814514,508.727600 985.776672,509.129913 
	C987.291626,508.263275 986.958740,506.797791 986.958496,505.536072 
	C986.956116,491.870972 986.986084,478.205048 986.839722,464.541138 
	C986.769897,458.019348 984.864014,455.870850 978.362549,454.222473 
	C977.032349,453.885193 975.594971,453.757141 975.674927,451.943848 
	C975.736572,450.545624 976.783142,449.822296 978.033752,449.829651 
	C986.522217,449.879578 995.010925,449.979553 1003.497314,450.164520 
	C1004.485107,450.186005 1005.277649,451.005737 1005.510498,452.164948 
	C1005.038452,454.321075 1003.020020,454.925964 1001.439514,455.379059 
	C996.776489,456.715820 996.014832,459.900299 996.042419,464.176086 
	C996.180115,485.506653 996.118103,506.838501 996.122192,528.622131 
z"/>
<path fill="#000000" opacity="1.000000" stroke="none" 
	d="
M511.218323,488.770264 
	C523.186829,488.764313 534.686035,488.651825 546.181519,488.811432 
	C550.244934,488.867859 551.902344,487.463837 551.740906,483.286316 
	C551.496643,476.963684 551.398621,470.608337 551.766235,464.297668 
	C552.056580,459.313477 550.354248,456.312134 545.437256,455.219269 
	C544.305054,454.967590 543.217163,454.522064 542.099121,454.199677 
	C540.760681,453.813690 539.375610,453.338196 539.684509,451.611511 
	C539.972961,449.999146 541.420166,449.781006 542.797546,449.706879 
	C543.461609,449.671143 544.132568,449.668274 544.795410,449.717438 
	C552.438354,450.284515 560.077698,450.717255 567.731812,449.827118 
	C569.372314,449.636353 571.396118,449.393829 571.971619,451.451172 
	C572.653625,453.889404 570.382996,453.850616 568.902710,454.410156 
	C565.311829,455.767456 564.072754,458.356079 564.098938,462.198151 
	C564.235291,482.193298 564.244080,502.190369 564.110413,522.185547 
	C564.078796,526.904968 566.141907,529.288208 570.593140,530.068298 
	C572.179260,530.346375 573.979431,530.270020 574.981140,531.960693 
	C572.332825,534.917725 542.185425,535.547729 537.257141,532.734009 
	C537.534302,529.924316 539.758484,530.709656 541.415283,530.528381 
	C549.007629,529.697815 551.652771,526.830261 551.673767,519.303223 
	C551.690918,513.137817 551.534180,506.968109 551.721069,500.808441 
	C551.835327,497.042450 550.535217,495.168091 546.591919,495.303070 
	C533.949524,495.735809 521.305420,496.347504 508.658752,495.368408 
	C505.464935,495.121155 504.141907,496.718414 504.169678,499.848816 
	C504.234772,507.179993 504.260895,514.513000 504.168732,521.843628 
	C504.107269,526.734070 505.908752,529.849487 511.156555,530.350342 
	C512.389404,530.468018 513.909302,530.560730 514.275024,532.275696 
	C510.453888,535.298828 485.232147,535.287415 481.623840,532.276733 
	C481.754211,531.981384 481.860962,531.452942 482.032684,531.430847 
	C490.766968,530.310852 491.228302,524.282471 491.119049,517.220215 
	C490.843231,499.394775 490.930237,481.561249 491.098114,463.733124 
	C491.141724,459.097809 490.244202,455.530273 485.355042,454.013885 
	C484.198669,453.655243 483.132477,452.948608 483.585907,451.481903 
	C483.912659,450.424835 484.921539,449.963043 485.959564,449.969788 
	C493.770752,450.020447 501.582214,450.091858 509.391876,450.244659 
	C510.402191,450.264374 511.262482,450.932281 511.392273,452.133179 
	C511.176971,453.553741 509.938385,453.783112 508.921143,454.304810 
	C505.651978,455.981537 504.057617,458.578613 504.129700,462.354645 
	C504.256958,469.017456 504.442993,475.697784 504.101166,482.344910 
	C503.838715,487.448853 505.768616,489.482880 511.218323,488.770264 
z"/>
<path fill="#000000" opacity="1.000000" stroke="none" 
	d="
M53.985016,530.182373 
	C54.568554,530.245117 54.733753,530.267151 54.899380,530.285217 
	C64.229019,531.303528 70.610664,528.899048 73.218933,523.382751 
	C75.886261,517.741516 73.079727,508.038666 66.773636,502.782288 
	C62.310028,499.061676 57.398567,495.876862 52.672352,492.473206 
	C45.726658,487.471100 39.373924,482.153290 36.527996,473.469513 
	C34.088902,466.027130 35.933060,457.455536 42.494793,452.980011 
	C49.136143,448.450165 56.390316,445.969299 64.642784,448.429047 
	C68.300995,449.519470 72.120155,450.057678 75.834328,450.975739 
	C79.976952,451.999634 83.650169,462.488739 81.042694,465.741241 
	C79.732346,467.375671 78.338821,466.799713 77.287521,465.503113 
	C76.463791,464.487244 76.038437,463.159546 75.325966,462.040497 
	C69.853157,453.444458 61.260555,452.467865 52.901321,455.042603 
	C46.069035,457.147003 44.708912,464.393982 48.803944,471.781372 
	C51.411274,476.484955 55.899124,479.176025 59.956993,482.335632 
	C67.912766,488.530182 76.937637,493.482513 82.004852,502.891876 
	C88.535751,515.019165 83.385834,528.890198 70.691841,534.252686 
	C61.182274,538.269958 52.222263,536.922363 43.062126,533.611877 
	C36.188957,531.127869 32.755527,525.414551 33.995827,518.137695 
	C34.239822,516.706177 34.809017,515.448364 36.393597,515.390930 
	C38.202122,515.325378 38.809341,516.758667 39.396072,518.234009 
	C41.977440,524.724792 46.435539,529.037659 53.985016,530.182373 
z"/>
<path fill="#000000" opacity="1.000000" stroke="none" 
	d="
M588.241577,530.176636 
	C591.547424,528.483215 592.002014,525.704651 592.003357,522.792236 
	C592.012390,502.647308 591.942810,482.502197 592.008911,462.357544 
	C592.021545,458.509796 590.348022,456.073639 586.970093,454.554657 
	C585.617249,453.946320 583.924988,453.381653 584.386841,451.448944 
	C584.815857,449.653503 586.519043,449.389404 588.029541,449.540680 
	C595.346008,450.273529 602.659546,450.033997 609.982178,449.737061 
	C611.496216,449.675659 613.177307,449.964996 613.368591,451.912262 
	C613.544922,453.706818 611.928589,453.884186 610.681213,454.267639 
	C607.325195,455.299347 605.965027,457.685974 605.973999,461.059143 
	C606.030701,482.368195 606.081970,503.677277 606.121460,524.986328 
	C606.126770,527.842041 607.099487,529.804810 610.266663,530.161804 
	C611.551270,530.306641 612.901123,530.603027 613.522156,532.016785 
	C610.393250,535.126770 588.086548,535.442261 583.875854,532.475525 
	C584.375244,530.205383 586.465698,530.862976 588.241577,530.176636 
z"/>
<path fill="#000000" opacity="1.000000" stroke="none" 
	d="
M407.315063,299.279266 
	C403.300385,288.549561 408.433167,278.817932 418.986145,276.607208 
	C426.912476,274.946747 434.059875,282.353241 431.799927,290.169586 
	C429.824554,297.001678 425.185944,301.523682 418.415070,303.805023 
	C414.901489,304.988861 412.419250,302.691650 409.345459,301.120728 
	C408.504395,300.492065 408.003510,299.979858 407.315063,299.279266 
z"/>
<path fill="#000000" opacity="1.000000" stroke="none" 
	d="
M517.397095,85.617126 
	C534.949768,89.224068 552.079590,92.767830 564.910950,107.679726 
	C559.022400,108.929207 554.645508,106.869286 551.636230,103.557991 
	C544.892212,96.137177 536.459229,96.573265 528.059998,97.778824 
	C513.558472,99.860283 513.635254,100.388451 513.009277,115.154602 
	C512.771912,120.753296 514.630981,122.747169 520.091919,124.165947 
	C533.917786,127.757919 545.623596,135.348465 554.985840,146.209824 
	C561.333923,153.574326 561.358093,153.749481 570.529541,150.271851 
	C570.996460,150.094818 571.481445,149.957855 571.932373,149.747330 
	C576.015198,147.841125 582.023987,148.756180 583.814819,143.562134 
	C585.835205,137.702148 585.428528,131.412888 583.845703,125.361465 
	C582.175842,118.977242 579.965149,113.201752 572.981567,110.259834 
	C568.983032,108.575432 569.013245,103.324554 566.755798,99.712143 
	C571.300842,100.365585 575.686707,101.168510 578.470886,105.070580 
	C586.724182,116.637650 593.631042,128.969696 598.596802,142.306412 
	C599.941406,145.917786 599.913086,149.586655 598.362610,153.445816 
	C595.434692,160.733109 597.135681,165.620514 603.530334,170.245697 
	C605.116455,171.392975 606.133423,172.789444 606.440125,174.700027 
	C608.074341,184.880432 610.149292,195.021957 608.377380,205.432602 
	C607.596130,210.022766 606.776245,214.628891 607.222168,219.337509 
	C607.436462,221.600601 606.612610,223.680008 605.391235,225.460022 
	C603.397034,228.366318 600.905701,230.946381 599.710754,234.605270 
	C596.866943,230.430420 596.567688,225.290771 599.071289,221.931564 
	C605.442749,213.382416 602.357727,205.636368 598.871948,197.564713 
	C598.607788,196.953094 598.383240,196.324432 598.121094,195.711899 
	C593.179993,184.167786 588.187439,182.306732 576.615906,187.509201 
	C573.766724,188.790192 574.083008,191.156738 574.153015,193.436218 
	C574.598999,207.943283 571.016479,221.456970 564.060120,234.098068 
	C562.545715,236.850128 560.736450,239.535843 558.608948,241.831314 
	C555.722046,244.946213 556.178284,247.629883 558.583984,250.627548 
	C561.187988,253.872253 563.726746,257.176605 566.138428,260.565613 
	C567.592407,262.608795 569.547546,263.004059 571.800659,263.031006 
	C581.037048,263.141449 588.461121,259.020660 595.067749,253.046799 
	C595.909851,252.285370 596.912659,251.251297 597.051697,250.235458 
	C597.992126,243.364990 602.203979,238.646942 607.417358,234.306671 
	C608.972595,234.452896 608.969299,235.901825 609.027161,237.200974 
	C609.230469,241.766586 607.514465,245.724747 604.725891,249.167206 
	C597.474426,258.118988 589.247925,266.136993 580.597534,273.718903 
	C575.453369,278.227600 570.505310,282.283783 562.484497,280.554291 
	C557.477600,279.474640 553.193481,283.129059 551.456482,288.185486 
	C550.129517,292.048584 547.538025,293.832886 544.074402,295.601807 
	C531.125183,302.215118 516.805725,304.073395 503.083954,307.984558 
	C502.174591,308.243774 501.052917,308.152557 500.126190,307.887695 
	C496.230621,306.774261 492.538452,304.663727 488.219452,305.774567 
	C487.880127,305.861816 487.304871,305.031799 486.105499,303.991913 
	C491.266083,302.436005 495.667847,299.285645 500.352539,300.692261 
	C511.132324,303.929016 518.393860,297.693787 525.345581,291.781860 
	C533.890991,284.514648 533.755859,278.218109 526.731873,269.401672 
	C524.940430,267.153076 523.093811,267.721710 520.950500,268.293213 
	C505.966461,272.288544 491.031067,272.523956 476.180389,267.601074 
	C475.074493,267.234497 473.936768,266.943237 472.867584,266.490051 
	C465.956421,263.560577 465.945343,263.536560 461.260132,269.562347 
	C459.422241,271.926056 457.857788,274.527435 455.847382,276.726807 
	C451.370972,281.623993 451.797546,286.873169 455.194061,291.735413 
	C460.852753,299.836243 466.791412,307.869690 478.615204,306.544220 
	C481.086090,306.267273 483.812653,306.648285 485.085083,309.338806 
	C486.397888,312.114777 490.242523,308.917725 491.402527,312.463013 
	C486.076904,314.896667 481.415009,316.647430 475.178406,313.525848 
	C464.299164,308.080444 453.329803,302.898010 443.278442,295.983337 
	C438.640625,292.792816 435.099426,289.078339 433.978149,283.052063 
	C432.713165,276.253265 429.075562,273.587067 422.086395,273.140015 
	C419.207397,272.955933 416.938873,272.041504 415.172668,269.793732 
	C408.383423,261.153351 401.389832,252.644180 396.811523,242.525558 
	C395.559631,239.758713 393.801270,237.361877 392.053925,234.923721 
	C391.194366,233.724319 390.183685,232.404739 389.956665,231.022110 
	C389.179840,226.290909 391.539093,221.306534 387.353424,216.169708 
	C393.242737,218.217590 398.122040,225.043457 397.951111,230.569580 
	C397.788940,235.813141 400.172638,239.521957 403.694855,242.752350 
	C408.143890,246.832703 413.448425,249.698380 418.676697,252.630692 
	C421.793640,254.378860 424.540833,254.161194 427.155670,251.289154 
	C430.062836,248.096008 433.253174,245.134293 436.528503,242.313675 
	C438.200775,240.873535 438.922760,239.739029 437.456482,237.773773 
	C426.956177,223.700699 424.223297,207.510361 424.931000,190.497910 
	C425.102814,186.368805 424.076141,184.195480 419.767914,183.082901 
	C415.132568,181.885864 410.695587,179.793610 406.310852,177.788452 
	C401.790985,175.721481 398.267670,176.440063 394.583771,179.892624 
	C388.984894,185.139908 385.979553,191.641571 383.959259,198.772125 
	C383.560181,200.180603 383.014954,202.051376 383.595093,203.150604 
	C386.977509,209.559738 385.155975,215.912903 383.874695,222.309326 
	C379.998138,220.221893 376.306976,212.917786 377.029633,208.075531 
	C379.120361,194.065674 382.150085,180.263977 386.809204,166.859283 
	C387.997864,163.439392 389.829987,160.786301 393.636047,159.522018 
	C399.410675,157.603760 402.515045,152.107544 400.965820,146.086288 
	C399.934570,142.078201 400.811157,138.926895 403.001373,135.791504 
	C409.195892,126.923859 415.185608,117.879402 423.857788,111.111908 
	C427.240356,108.472244 429.139465,104.819534 431.062317,101.309303 
	C430.171417,99.415710 428.356842,101.302711 427.013092,99.385330 
	C428.703674,95.606293 430.968018,91.941605 435.606873,90.488205 
	C449.462280,86.147171 463.489990,82.723854 478.146606,82.596550 
	C481.368439,82.568573 483.917694,83.711723 486.370850,85.602676 
	C491.799377,89.787209 497.341492,90.921318 503.114929,86.097527 
	C507.542969,82.397865 512.308960,84.659691 517.397095,85.617126 
M475.851501,120.047195 
	C475.419556,114.577904 475.643585,109.092369 475.291443,103.602875 
	C474.873627,97.090111 470.980896,94.667549 465.783356,93.104050 
	C452.797180,89.197624 446.229126,90.786774 435.538727,100.181931 
	C438.394135,100.620354 441.186340,100.381020 443.970764,98.771500 
	C442.723511,103.542892 440.122620,106.958069 435.425873,108.539352 
	C432.228577,109.615776 429.052002,110.739059 427.369904,113.975037 
	C423.761566,120.916763 420.304474,127.913315 419.430054,135.865204 
	C419.109528,138.779938 419.672150,141.036728 422.484375,142.567749 
	C426.427917,144.714630 430.413422,146.856262 434.066772,149.443756 
	C437.571777,151.926163 439.821777,151.245789 442.254761,147.970642 
	C449.807587,137.803421 459.949951,131.005585 471.542358,126.249153 
	C474.035492,125.226212 476.043304,124.024879 475.851501,120.047195 
M551.737854,225.453995 
	C552.026184,225.313019 552.334778,225.200409 552.592407,225.016373 
	C552.688599,224.947662 552.750000,224.636337 552.684814,224.563858 
	C551.031555,222.727005 548.469116,221.884048 547.245483,219.569260 
	C546.615662,218.377686 545.800049,217.072403 547.028625,215.937820 
	C548.341309,214.725479 549.570496,215.721954 550.457520,216.711975 
	C551.841064,218.256149 553.052612,219.954376 554.337036,221.587326 
	C554.692078,221.202026 555.047058,220.816727 555.402100,220.431427 
	C553.925842,213.578064 547.826111,212.748703 542.273499,210.795135 
	C544.286560,215.444733 541.732361,218.994217 539.221985,222.070374 
	C534.101685,228.344727 535.695068,233.851303 543.889771,236.225708 
	C543.195312,233.870834 540.578918,233.466232 539.512085,231.641586 
	C538.399780,229.739227 535.895203,227.671875 538.340149,225.563980 
	C540.596863,223.618362 542.634338,225.573700 544.243469,227.386353 
	C545.567078,228.877396 546.672668,230.758438 549.226013,230.290604 
	C548.775940,225.601883 541.682434,225.378265 542.816345,219.440063 
	C546.390381,221.015671 547.672607,224.821945 551.737854,225.453995 
M525.027283,146.555603 
	C523.725037,143.937164 526.631104,138.987946 522.234131,138.600754 
	C518.346252,138.258423 518.996765,143.288651 517.619141,145.914139 
	C517.197388,146.717896 516.077454,147.875168 517.551331,148.841873 
	C519.274292,148.376907 518.887939,145.529480 521.190063,145.842392 
	C523.530762,147.044998 520.928955,151.427002 524.667175,151.550217 
	C527.291504,151.636719 527.874878,147.708633 530.791992,147.877518 
	C532.495056,150.474106 529.256226,152.516602 530.248230,155.581726 
	C532.738586,153.011749 533.725769,150.097198 534.787231,147.225723 
	C535.391296,145.591599 535.925415,143.992844 533.795593,142.987991 
	C531.824524,142.058090 530.689636,143.222626 529.579834,144.579147 
	C528.510803,145.885818 528.050903,148.207260 525.027283,146.555603 
M520.016663,253.098160 
	C522.015686,252.470001 524.601624,252.476837 524.743896,249.548904 
	C524.929993,245.716644 523.773193,242.249664 520.789734,239.740524 
	C518.362915,237.699524 515.492310,237.314346 513.187317,239.835999 
	C510.963715,242.268555 510.191254,245.119873 512.663513,248.187988 
	C514.414124,246.682510 513.140442,245.179001 513.286255,243.814560 
	C513.504028,241.777710 513.705139,239.371796 516.287109,239.421097 
	C518.845459,239.469925 518.998352,241.917221 519.169250,243.924362 
	C519.329163,245.801514 518.761841,247.488495 517.884033,249.164307 
	C517.090393,250.679382 515.514099,251.960632 515.951355,253.976974 
	C517.299438,254.495499 518.275879,253.659256 520.016663,253.098160 
M489.124908,147.623749 
	C491.115356,144.666504 490.130646,137.807022 487.393951,136.242340 
	C485.657776,135.249680 483.522461,135.145233 482.398499,136.824478 
	C480.260437,140.018768 481.179962,143.597900 482.477631,146.818192 
	C483.682831,149.809082 486.215881,148.770569 489.124908,147.623749 
M446.204315,170.428345 
	C444.925110,170.285873 443.454529,169.655884 442.649445,171.205078 
	C441.984436,172.484726 443.070679,173.331406 443.768860,174.242279 
	C444.727051,175.492386 446.539337,176.261917 446.157410,178.253876 
	C444.136108,180.934540 441.243591,176.931885 438.660248,179.367050 
	C441.562439,180.454147 444.007629,181.363510 446.447571,182.286758 
	C447.692474,182.757797 448.755951,182.490570 449.547302,181.446335 
	C450.338715,180.402054 450.252930,179.330078 449.544525,178.216934 
	C448.636505,176.790161 446.491455,175.898468 447.345032,173.814651 
	C449.050659,171.709854 453.455597,174.601776 453.389832,170.797897 
	C453.325836,167.095490 450.150391,164.984314 447.170288,163.233215 
	C447.590607,164.609360 448.469208,165.575760 449.323151,166.563461 
	C450.178741,167.553085 451.401031,168.537048 450.530060,170.005615 
	C449.666962,171.460938 448.225891,170.914230 446.204315,170.428345 
M556.659424,169.510422 
	C556.380127,167.203262 554.747375,166.959000 553.023926,167.407654 
	C550.246582,168.130646 547.533264,169.099609 543.729248,170.300430 
	C548.895569,172.444809 550.661377,175.707916 550.244690,180.338409 
	C552.854126,177.017197 555.323547,173.990875 556.659424,169.510422 
M544.264160,161.768127 
	C544.519348,158.881546 549.069397,155.955917 545.408630,153.368057 
	C542.189026,151.092056 540.113098,155.692871 537.303467,156.733246 
	C536.770691,156.930542 536.419006,157.617020 535.681580,158.397598 
	C539.112366,160.060013 541.247375,162.563538 541.935669,166.119781 
	C543.816162,165.177032 543.654602,163.682617 544.264160,161.768127 
M495.246185,144.324219 
	C496.666138,147.345139 497.183929,145.163177 497.595825,143.844910 
	C498.151886,142.065414 498.991669,140.734222 501.066467,141.046906 
	C502.939301,141.329163 503.198364,142.892914 503.384399,144.431259 
	C503.486877,145.278610 503.679169,146.073349 505.167328,146.169235 
	C506.374664,142.454956 506.483307,138.770538 505.075348,134.867081 
	C502.708405,135.785965 503.525238,139.293793 500.479828,139.205978 
	C497.754578,139.127426 497.892181,136.067642 496.055969,135.134705 
	C495.708313,135.610031 495.371948,135.856918 495.363037,136.115082 
	C495.277191,138.608292 495.246368,141.103424 495.246185,144.324219 
M557.722168,184.373520 
	C555.880859,184.745010 554.039612,185.116516 551.311340,185.666962 
	C553.707703,187.202972 556.239441,185.713760 556.928040,188.129196 
	C557.312256,189.477051 556.199585,190.210419 555.381897,191.020691 
	C553.892761,192.496353 551.403870,193.860184 552.688477,196.276306 
	C554.032837,198.804932 556.586060,196.783783 558.591980,196.810730 
	C559.501160,196.822968 560.622314,196.889359 561.208618,195.811310 
	C555.898315,193.771957 555.924072,193.771515 560.127686,189.392975 
	C562.636902,186.779312 562.965759,184.732086 557.722168,184.373520 
M494.845490,255.363495 
	C498.544617,254.227951 498.544617,254.227951 495.728485,247.914886 
	C496.718445,246.523331 499.853394,246.235504 498.326660,243.448120 
	C496.958649,240.950516 494.742004,240.085098 491.986145,240.655396 
	C486.756165,241.737701 484.503601,248.361618 487.387360,254.389877 
	C488.419708,252.434753 487.489655,250.439743 487.767212,248.517975 
	C488.697998,242.073105 493.779724,239.835678 497.041473,245.154449 
	C491.381592,246.337250 491.809143,248.798874 495.616058,251.975555 
	C496.677551,252.861298 496.138550,254.118042 494.845490,255.363495 
M462.190826,155.207611 
	C459.660309,154.504532 457.768616,150.121872 455.065491,152.519333 
	C452.573273,154.729782 455.105927,158.087006 455.922333,160.860504 
	C456.232635,161.914734 456.336487,163.197968 458.039459,163.886322 
	C458.748779,160.109329 461.861877,158.867783 465.596069,157.812988 
	C464.294678,156.772049 463.533844,156.163483 462.190826,155.207611 
M473.894531,144.567001 
	C472.703735,143.257599 471.738159,141.077164 469.630371,141.840332 
	C467.501587,142.611130 468.200043,144.936951 468.138214,146.683777 
	C468.054077,149.060806 468.117218,151.443039 468.117218,153.823029 
	C471.144196,150.619659 473.743011,148.775482 478.753479,150.865723 
	C476.695831,148.216446 475.497833,146.673996 473.894531,144.567001 
M504.031891,240.171524 
	C504.709320,245.129349 503.938965,250.301758 505.810242,255.742157 
	C508.185516,251.679779 507.163422,239.678299 504.559662,236.646240 
	C503.725128,237.488937 504.058655,238.510696 504.031891,240.171524 
M481.228058,242.562576 
	C481.089874,245.712982 479.960815,248.443436 477.228424,250.107147 
	C474.668488,251.665863 474.777771,247.877289 472.958679,247.296417 
	C472.544403,250.117325 473.958801,251.461746 475.961792,252.038361 
	C478.035614,252.635330 479.322662,251.147568 480.396332,249.591278 
	C482.135498,247.070328 483.127899,244.326538 482.900177,241.212433 
	C482.772186,239.461761 482.335846,237.825958 480.401886,237.379883 
	C478.400848,236.918304 476.626953,237.274841 475.149261,240.863068 
	C478.843994,237.646698 480.927429,237.496445 481.228058,242.562576 
M441.616394,192.088470 
	C440.836578,193.489166 440.416168,195.301086 438.942261,195.171585 
	C436.416107,194.722595 437.318726,192.254944 435.543121,191.302780 
	C435.133179,194.151169 435.680695,196.275421 437.874268,197.263474 
	C440.095520,198.263992 441.049530,196.138428 442.111969,194.719131 
	C444.292725,191.805939 446.042511,192.476776 447.606934,196.543091 
	C447.735687,193.024414 447.421875,190.883606 445.087189,189.833771 
	C443.525452,189.131546 442.645447,190.278717 441.616394,192.088470 
M534.578125,235.059326 
	C532.986389,233.228653 531.622742,230.576721 528.623230,231.877213 
	C526.677368,232.720856 525.508301,234.478500 526.847778,237.355499 
	C527.564026,235.475067 526.936035,232.963440 529.489868,233.474411 
	C533.058594,234.188431 534.383789,237.147156 535.156433,240.305588 
	C535.932373,243.477707 534.333984,245.004272 530.039185,244.817947 
	C533.504211,246.498444 535.267090,245.599213 536.207764,243.689651 
	C537.592651,240.878418 536.324951,238.222641 534.578125,235.059326 
M471.816833,233.916931 
	C469.110870,235.369400 468.622864,238.302429 467.293365,240.677063 
	C465.407776,244.044968 463.981873,247.846222 459.243103,248.745361 
	C462.838989,250.709427 463.526154,250.743423 465.361023,247.563156 
	C467.836761,243.272095 469.893555,238.739319 471.816833,233.916931 
M510.565369,144.275848 
	C510.625671,145.153259 509.857605,146.254288 511.883453,147.059250 
	C512.824036,143.415451 514.219482,140.033356 512.775452,135.598297 
	C510.358978,138.327148 511.604523,141.209869 510.565369,144.275848 
M457.487610,220.739502 
	C453.687927,222.523560 451.181122,225.592316 449.005524,229.004990 
	C452.244843,226.687775 455.648987,224.577637 457.487610,220.739502 
M465.831085,233.922806 
	C466.034058,233.230881 466.759735,232.478882 465.343414,231.785629 
	C463.195160,235.134369 460.128296,237.515396 456.467438,239.206665 
	C460.674500,239.754456 462.944183,236.799927 465.831085,233.922806 
M448.712341,216.192886 
	C447.104004,217.848022 445.051971,219.228516 445.074493,221.979385 
	C447.732056,219.051819 450.638367,216.602753 454.966339,215.524063 
	C452.427887,213.899078 450.867554,215.040558 448.712341,216.192886 
M460.216919,224.819443 
	C458.716187,228.718857 454.336029,230.883118 453.569244,235.255234 
	C455.311066,232.990128 457.571594,231.269135 459.262268,229.088577 
	C460.221771,227.850998 462.765289,226.684464 460.216919,224.819443 
z"/>
<path fill="#000000" opacity="1.000000" stroke="none" 
	d="
M578.504639,295.894806 
	C579.536255,301.362671 578.752441,305.782257 574.382019,309.245026 
	C569.913330,312.785583 565.849182,311.468658 561.470337,309.083191 
	C555.749756,305.966766 552.951660,301.159088 552.980286,294.871094 
	C552.999451,290.670685 553.767456,286.385345 558.282166,284.359650 
	C563.120422,282.188812 567.732910,282.699005 571.793213,286.263580 
	C574.703003,288.818207 577.123657,291.764709 578.504639,295.894806 
z"/>
<path fill="#000000" opacity="1.000000" stroke="none" 
	d="
M381.193054,158.232605 
	C375.270935,156.558868 372.517273,152.193008 370.629120,147.336899 
	C368.392334,141.584290 372.960480,134.911957 379.598175,133.893936 
	C386.252838,132.873291 391.678986,135.360840 395.917358,140.369080 
	C399.706665,144.846710 399.886963,148.948486 396.900055,153.593521 
	C393.604492,158.718552 389.043915,160.124725 381.193054,158.232605 
z"/>
<path fill="#000000" opacity="1.000000" stroke="none" 
	d="
M505.894897,64.585861 
	C509.178131,71.956573 506.883514,77.970192 502.314911,83.329941 
	C499.143311,87.050735 492.735077,87.115013 488.642303,83.851295 
	C481.101044,77.837654 481.657318,63.698788 489.639618,58.503365 
	C495.131653,54.928764 497.904022,55.263374 502.690247,60.256889 
	C503.832489,61.448555 504.700500,62.903061 505.894897,64.585861 
z"/>
<path fill="#000000" opacity="1.000000" stroke="none" 
	d="
M610.553711,146.220276 
	C616.323059,145.162796 621.543701,145.017838 625.873596,149.261108 
	C628.437866,151.774063 629.855591,154.793655 628.907471,158.278610 
	C627.291199,164.219727 623.033875,167.877380 617.316650,169.624069 
	C611.764099,171.320435 606.815430,170.103592 602.893127,165.519348 
	C598.595398,160.496475 598.992310,155.391190 604.448914,150.253036 
	C606.113647,148.685440 608.262451,147.631958 610.553711,146.220276 
z"/>
</svg>